<svg width="120" height="36" viewBox="0 0 120 36" fill="none" xmlns="http://www.w3.org/2000/svg">
<rect x="0.263184" y="0.294922" width="119.737" height="35" rx="4" fill="black"/>
<path d="M59.5552 18.8758C57.4422 18.8758 55.7694 20.2655 55.7694 22.1957C55.7694 24.0486 57.4422 25.5155 59.5552 25.5155C61.6682 25.5155 63.341 24.1258 63.341 22.1957C63.341 20.1883 61.6682 18.8758 59.5552 18.8758ZM59.5552 24.1258C58.4106 24.1258 57.4422 23.2765 57.4422 22.1185C57.4422 20.9604 58.4106 20.1111 59.5552 20.1111C60.6997 20.1111 61.6682 20.8832 61.6682 22.1185C61.6682 23.2765 60.6997 24.1258 59.5552 24.1258ZM51.3673 18.8758C49.2543 18.8758 47.5815 20.2655 47.5815 22.1957C47.5815 24.0486 49.2543 25.5155 51.3673 25.5155C53.4803 25.5155 55.1531 24.1258 55.1531 22.1957C55.1531 20.1883 53.4803 18.8758 51.3673 18.8758ZM51.3673 24.1258C50.2228 24.1258 49.2543 23.2765 49.2543 22.1185C49.2543 20.9604 50.2228 20.1111 51.3673 20.1111C52.5119 20.1111 53.4803 20.8832 53.4803 22.1185C53.4803 23.2765 52.5119 24.1258 51.3673 24.1258ZM41.5947 19.8795V21.2692H45.3805C45.2924 22.0413 44.9403 22.6589 44.5001 23.0449C43.9718 23.5082 43.0914 24.0486 41.5947 24.0486C39.2176 24.0486 37.4567 22.4273 37.4567 20.3427C37.4567 18.2582 39.3056 16.6368 41.5947 16.6368C42.8273 16.6368 43.7957 17.1001 44.5001 17.6405L45.6446 16.6368C44.6761 15.8648 43.4436 15.2471 41.6827 15.2471C38.5132 15.2471 35.7839 17.5633 35.7839 20.3427C35.7839 23.1221 38.5132 25.4383 41.6827 25.4383C43.4436 25.4383 44.6761 24.9751 45.7326 23.9714C46.7891 23.0449 47.1413 21.7324 47.1413 20.7288C47.1413 20.4199 47.1413 20.1111 47.0533 19.8795H41.5947ZM81.5656 20.9604C81.2134 20.1883 80.333 18.8758 78.3961 18.8758C76.4592 18.8758 74.8744 20.1883 74.8744 22.1957C74.8744 24.0486 76.4592 25.5155 78.5722 25.5155C80.245 25.5155 81.3015 24.589 81.6537 24.0486L80.4211 23.2765C79.9809 23.817 79.4526 24.203 78.5722 24.203C77.6918 24.203 77.1635 23.8942 76.7233 23.1993L81.7417 21.3464L81.5656 20.9604ZM76.4592 22.0413C76.4592 20.806 77.6037 20.1111 78.3961 20.1111C79.0124 20.1111 79.6287 20.4199 79.8048 20.806L76.4592 22.0413ZM72.3212 25.2067H73.994V15.556H72.3212V25.2067ZM69.68 19.5707C69.2398 19.1846 68.5354 18.7986 67.655 18.7986C65.8062 18.7986 64.0453 20.2655 64.0453 22.1185C64.0453 23.9714 65.7181 25.3611 67.655 25.3611C68.5354 25.3611 69.2398 24.9751 69.5919 24.589H69.68V25.0523C69.68 26.2876 68.8876 26.9824 67.655 26.9824C66.6866 26.9824 65.9822 26.3648 65.8061 25.8243L64.3975 26.3648C64.8377 27.214 65.8942 28.2949 67.7431 28.2949C69.68 28.2949 71.2647 27.2912 71.2647 24.8979V19.0302H69.68V19.5707ZM67.7431 24.1258C66.5985 24.1258 65.6301 23.2765 65.6301 22.1185C65.6301 20.9604 66.5985 20.1111 67.7431 20.1111C68.8876 20.1111 69.768 20.9604 69.768 22.1185C69.768 23.2765 68.8876 24.1258 67.7431 24.1258ZM89.2252 15.556H85.2634V25.2067H86.9362V21.578H89.2252C91.0741 21.578 92.8349 20.4199 92.8349 18.567C92.8349 16.7141 91.0741 15.556 89.2252 15.556ZM89.3133 20.1883H86.9362V16.8685H89.3133C90.5459 16.8685 91.2502 17.7949 91.2502 18.4898C91.1622 19.3391 90.4578 20.1883 89.3133 20.1883ZM99.4381 18.7986C98.2055 18.7986 96.9729 19.2618 96.5327 20.2655L98.0294 20.806C98.3816 20.2655 98.9098 20.1111 99.5261 20.1111C100.407 20.1111 101.199 20.5743 101.287 21.3464V21.4236C101.023 21.2692 100.318 21.0376 99.6142 21.0376C98.0294 21.0376 96.4447 21.8096 96.4447 23.1993C96.4447 24.5118 97.7653 25.3611 99.1739 25.3611C100.318 25.3611 100.847 24.8979 101.287 24.4346H101.375V25.2067H102.96V21.5008C102.784 19.8023 101.287 18.7986 99.4381 18.7986ZM99.262 24.1258C98.7337 24.1258 97.9414 23.8942 97.9414 23.2765C97.9414 22.5045 98.9098 22.2729 99.7022 22.2729C100.407 22.2729 100.759 22.4273 101.199 22.5817C101.023 23.5082 100.142 24.1258 99.262 24.1258ZM108.506 19.0302L106.658 23.1993H106.569L104.633 19.0302H102.872L105.777 24.8979L104.104 28.1405H105.777L110.267 19.0302H108.506ZM93.7154 25.2067H95.3882V15.556H93.7154V25.2067Z" fill="white"/>
<path d="M35.96 12.0817V7.44935H37.5448C38.3372 7.44935 39.0415 7.68097 39.4817 8.067C40.01 8.53023 40.186 9.07067 40.186 9.76552C40.186 10.4604 39.9219 11.0008 39.4817 11.4641C39.0415 11.8501 38.3372 12.0817 37.5448 12.0817H35.96ZM36.6644 11.5413H37.6328C38.2491 11.5413 38.6893 11.3868 39.0415 11.078C39.3937 10.7692 39.5698 10.306 39.5698 9.76552C39.5698 9.22508 39.3937 8.76185 39.0415 8.45302C38.6893 8.1442 38.1611 7.98979 37.6328 7.98979H36.6644V11.5413Z" fill="white"/>
<path d="M41.1545 12.0817V7.44935H41.8589V12.0817H41.1545Z" fill="white"/>
<path d="M44.5881 12.1589C44.236 12.1589 43.7958 12.0817 43.4436 11.8501C43.0914 11.6184 42.8273 11.3096 42.7393 10.9236L43.3556 10.692C43.4436 10.9236 43.6197 11.1552 43.7958 11.3096C44.0599 11.464 44.324 11.5412 44.5881 11.5412C44.8523 11.5412 45.1164 11.464 45.3805 11.3096C45.5566 11.1552 45.7327 11.0008 45.7327 10.7692C45.7327 10.5376 45.6446 10.3059 45.3805 10.1515C45.2044 9.99712 44.8523 9.84271 44.4121 9.76551C43.9718 9.6111 43.6197 9.45668 43.3556 9.30227C43.0914 9.07066 43.0034 8.83904 43.0034 8.53021C43.0034 8.22139 43.1795 7.91257 43.4436 7.68095C43.7077 7.44933 44.1479 7.29492 44.5881 7.29492C45.0283 7.29492 45.3805 7.37213 45.6446 7.60375C45.9088 7.83536 46.0848 7.98977 46.1729 8.22139L45.5566 8.45301C45.4686 8.2986 45.3805 8.14419 45.2044 8.06698C45.0283 7.91257 44.7642 7.91257 44.5001 7.91257C44.236 7.91257 44.0599 7.98977 43.7958 8.06698C43.7077 8.22139 43.6197 8.3758 43.6197 8.60742C43.6197 8.76183 43.7077 8.91624 43.8838 9.07066C44.0599 9.22507 44.324 9.30227 44.6762 9.37948C44.9403 9.45668 45.1164 9.53389 45.2925 9.6111C45.4686 9.6883 45.6446 9.76551 45.8207 9.91992C45.9968 9.99713 46.1729 10.1515 46.2609 10.3832C46.349 10.5376 46.437 10.7692 46.437 11.0008C46.437 11.2324 46.349 11.464 46.2609 11.6184C46.1729 11.7729 45.9968 11.9273 45.8207 12.0045C45.5566 12.0045 45.3805 12.0817 45.2044 12.0817C45.0283 12.1589 44.7642 12.1589 44.5881 12.1589Z" fill="white"/>
<path d="M48.0218 12.0817H47.3174V7.44935H49.0783C49.5185 7.44935 49.8706 7.60376 50.2228 7.83538C50.575 8.067 50.7511 8.45302 50.7511 8.83905C50.7511 9.22508 50.575 9.53391 50.2228 9.84273C49.8706 10.0743 49.5185 10.2288 49.0783 10.2288H48.0218V12.0817ZM48.0218 9.61111H49.1663C49.4304 9.61111 49.6946 9.53391 49.8706 9.37949C50.0467 9.22508 50.1348 8.99346 50.1348 8.83905C50.1348 8.60744 50.0467 8.45302 49.8706 8.29861C49.6946 8.1442 49.4304 8.067 49.1663 8.067H48.0218V9.61111Z" fill="white"/>
<path d="M55.9455 11.464C55.4173 11.9273 54.801 12.1589 54.0086 12.1589C53.2162 12.1589 52.5999 11.9273 52.0717 11.464C51.5434 11.0008 51.2793 10.4604 51.2793 9.7655C51.2793 9.07065 51.5434 8.53021 52.0717 8.06697C52.5999 7.60374 53.2162 7.37212 54.0086 7.37212C54.801 7.37212 55.4173 7.60374 55.9455 8.06697C56.4738 8.53021 56.7379 9.07065 56.7379 9.7655C56.7379 10.4604 56.4738 11.0008 55.9455 11.464ZM52.5999 11.078C52.9521 11.3868 53.4804 11.6184 54.0086 11.6184C54.5369 11.6184 55.0651 11.464 55.4173 11.078C55.7694 10.7692 56.0336 10.3059 56.0336 9.7655C56.0336 9.22506 55.8575 8.76183 55.4173 8.453C55.0651 8.14418 54.5369 7.91256 54.0086 7.91256C53.4804 7.91256 52.9521 8.06697 52.5999 8.453C52.2478 8.76183 51.9837 9.22506 51.9837 9.7655C51.9837 10.3059 52.1597 10.7692 52.5999 11.078Z" fill="white"/>
<path d="M57.7064 12.0817V7.44935H58.4987L61.0519 11.078V7.44935H61.7563V12.0817H61.0519L58.3226 8.29861V12.0817H57.7064Z" fill="white"/>
<path d="M62.9889 12.0817V7.44935H63.6932V12.0817H62.9889Z" fill="white"/>
<path d="M64.8377 7.44935H66.7746C67.2148 7.44935 67.567 7.60376 67.8311 7.83538C68.0953 8.067 68.2713 8.37582 68.2713 8.76185C68.2713 8.99347 68.1833 9.14788 68.0953 9.37949C68.0072 9.53391 67.8311 9.68832 67.567 9.76552C67.8311 9.84273 68.0072 9.99714 68.1833 10.1516C68.3594 10.306 68.4474 10.5376 68.4474 10.8464C68.4474 11.2324 68.2713 11.5413 68.0072 11.7729C67.655 12.0045 67.3029 12.1589 66.8627 12.1589H64.8377V7.44935ZM65.542 9.4567H66.7746C67.0388 9.4567 67.2148 9.37949 67.3909 9.22508C67.567 9.07067 67.655 8.91626 67.655 8.76185C67.655 8.60744 67.479 8.37582 67.3909 8.22141C67.2148 8.067 67.0388 7.98979 66.7746 7.98979H65.542V9.4567ZM65.542 11.5413H66.9507C67.2148 11.5413 67.3909 11.464 67.567 11.3096C67.7431 11.1552 67.8311 11.0008 67.8311 10.7692C67.8311 10.6148 67.7431 10.3832 67.567 10.2288C67.3909 10.0743 67.2148 9.99714 66.9507 9.99714H65.6301V11.5413H65.542Z" fill="white"/>
<path d="M69.3279 12.0817V7.44935H70.0322V11.5413H72.3213V12.0817H69.3279Z" fill="white"/>
<path d="M76.2831 7.98979H73.906V9.4567H76.1071V9.99714H73.906V11.4641H76.2831V12.0817H73.2017V7.44935H76.2831V7.98979Z" fill="white"/>
<path d="M82.1819 7.98979H79.8048V9.4567H82.0059V9.99714H79.8048V11.4641H82.1819V12.0817H79.1005V7.44935H82.1819V7.98979Z" fill="white"/>
<path d="M83.2384 12.0817V7.44935H84.0308L86.584 11.078V7.44935H87.2884V12.0817H86.584L83.8547 8.29861V12.0817H83.2384Z" fill="white"/>
<path d="M59.5552 18.8758C57.4422 18.8758 55.7694 20.2655 55.7694 22.1957C55.7694 24.0486 57.4422 25.5155 59.5552 25.5155C61.6682 25.5155 63.341 24.1258 63.341 22.1957C63.341 20.1883 61.6682 18.8758 59.5552 18.8758ZM59.5552 24.1258C58.4106 24.1258 57.4422 23.2765 57.4422 22.1185C57.4422 20.9604 58.4106 20.1111 59.5552 20.1111C60.6997 20.1111 61.6682 20.8832 61.6682 22.1185C61.6682 23.2765 60.6997 24.1258 59.5552 24.1258ZM51.3673 18.8758C49.2543 18.8758 47.5815 20.2655 47.5815 22.1957C47.5815 24.0486 49.2543 25.5155 51.3673 25.5155C53.4803 25.5155 55.1531 24.1258 55.1531 22.1957C55.1531 20.1883 53.4803 18.8758 51.3673 18.8758ZM51.3673 24.1258C50.2228 24.1258 49.2543 23.2765 49.2543 22.1185C49.2543 20.9604 50.2228 20.1111 51.3673 20.1111C52.5119 20.1111 53.4803 20.8832 53.4803 22.1185C53.4803 23.2765 52.5119 24.1258 51.3673 24.1258ZM41.5947 19.8795V21.2692H45.3805C45.2924 22.0413 44.9403 22.6589 44.5001 23.0449C43.9718 23.5082 43.0914 24.0486 41.5947 24.0486C39.2176 24.0486 37.4567 22.4273 37.4567 20.3427C37.4567 18.2582 39.3056 16.6368 41.5947 16.6368C42.8273 16.6368 43.7957 17.1001 44.5001 17.6405L45.6446 16.6368C44.6761 15.8648 43.4436 15.2471 41.6827 15.2471C38.5132 15.2471 35.7839 17.5633 35.7839 20.3427C35.7839 23.1221 38.5132 25.4383 41.6827 25.4383C43.4436 25.4383 44.6761 24.9751 45.7326 23.9714C46.7891 23.0449 47.1413 21.7324 47.1413 20.7288C47.1413 20.4199 47.1413 20.1111 47.0533 19.8795H41.5947ZM81.5656 20.9604C81.2134 20.1883 80.333 18.8758 78.3961 18.8758C76.4592 18.8758 74.8744 20.1883 74.8744 22.1957C74.8744 24.0486 76.4592 25.5155 78.5722 25.5155C80.245 25.5155 81.3015 24.589 81.6537 24.0486L80.4211 23.2765C79.9809 23.817 79.4526 24.203 78.5722 24.203C77.6918 24.203 77.1635 23.8942 76.7233 23.1993L81.7417 21.3464L81.5656 20.9604ZM76.4592 22.0413C76.4592 20.806 77.6037 20.1111 78.3961 20.1111C79.0124 20.1111 79.6287 20.4199 79.8048 20.806L76.4592 22.0413ZM72.3212 25.2067H73.994V15.556H72.3212V25.2067ZM69.68 19.5707C69.2398 19.1846 68.5354 18.7986 67.655 18.7986C65.8062 18.7986 64.0453 20.2655 64.0453 22.1185C64.0453 23.9714 65.7181 25.3611 67.655 25.3611C68.5354 25.3611 69.2398 24.9751 69.5919 24.589H69.68V25.0523C69.68 26.2876 68.8876 26.9824 67.655 26.9824C66.6866 26.9824 65.9822 26.3648 65.8061 25.8243L64.3975 26.3648C64.8377 27.214 65.8942 28.2949 67.7431 28.2949C69.68 28.2949 71.2647 27.2912 71.2647 24.8979V19.0302H69.68V19.5707ZM67.7431 24.1258C66.5985 24.1258 65.6301 23.2765 65.6301 22.1185C65.6301 20.9604 66.5985 20.1111 67.7431 20.1111C68.8876 20.1111 69.768 20.9604 69.768 22.1185C69.768 23.2765 68.8876 24.1258 67.7431 24.1258ZM89.2252 15.556H85.2634V25.2067H86.9362V21.578H89.2252C91.0741 21.578 92.8349 20.4199 92.8349 18.567C92.8349 16.7141 91.0741 15.556 89.2252 15.556ZM89.3133 20.1883H86.9362V16.8685H89.3133C90.5459 16.8685 91.2502 17.7949 91.2502 18.4898C91.1622 19.3391 90.4578 20.1883 89.3133 20.1883ZM99.4381 18.7986C98.2055 18.7986 96.9729 19.2618 96.5327 20.2655L98.0294 20.806C98.3816 20.2655 98.9098 20.1111 99.5261 20.1111C100.407 20.1111 101.199 20.5743 101.287 21.3464V21.4236C101.023 21.2692 100.318 21.0376 99.6142 21.0376C98.0294 21.0376 96.4447 21.8096 96.4447 23.1993C96.4447 24.5118 97.7653 25.3611 99.1739 25.3611C100.318 25.3611 100.847 24.8979 101.287 24.4346H101.375V25.2067H102.96V21.5008C102.784 19.8023 101.287 18.7986 99.4381 18.7986ZM99.262 24.1258C98.7337 24.1258 97.9414 23.8942 97.9414 23.2765C97.9414 22.5045 98.9098 22.2729 99.7022 22.2729C100.407 22.2729 100.759 22.4273 101.199 22.5817C101.023 23.5082 100.142 24.1258 99.262 24.1258ZM108.506 19.0302L106.658 23.1993H106.569L104.633 19.0302H102.872L105.777 24.8979L104.104 28.1405H105.777L110.267 19.0302H108.506ZM93.7154 25.2067H95.3882V15.556H93.7154V25.2067Z" stroke="white" stroke-width="0.170985" stroke-miterlimit="10"/>
<path d="M35.96 12.0817V7.44935H37.5448C38.3372 7.44935 39.0415 7.68097 39.4817 8.067C40.01 8.53023 40.186 9.07067 40.186 9.76552C40.186 10.4604 39.9219 11.0008 39.4817 11.4641C39.0415 11.8501 38.3372 12.0817 37.5448 12.0817H35.96ZM36.6644 11.5413H37.6328C38.2491 11.5413 38.6893 11.3868 39.0415 11.078C39.3937 10.7692 39.5698 10.306 39.5698 9.76552C39.5698 9.22508 39.3937 8.76185 39.0415 8.45302C38.6893 8.1442 38.1611 7.98979 37.6328 7.98979H36.6644V11.5413Z" stroke="white" stroke-width="0.170985" stroke-miterlimit="10"/>
<path d="M41.1545 12.0817V7.44935H41.8589V12.0817H41.1545Z" stroke="white" stroke-width="0.170985" stroke-miterlimit="10"/>
<path d="M44.5881 12.1589C44.236 12.1589 43.7958 12.0817 43.4436 11.8501C43.0914 11.6184 42.8273 11.3096 42.7393 10.9236L43.3556 10.692C43.4436 10.9236 43.6197 11.1552 43.7958 11.3096C44.0599 11.464 44.324 11.5412 44.5881 11.5412C44.8523 11.5412 45.1164 11.464 45.3805 11.3096C45.5566 11.1552 45.7327 11.0008 45.7327 10.7692C45.7327 10.5376 45.6446 10.3059 45.3805 10.1515C45.2044 9.99712 44.8523 9.84271 44.4121 9.76551C43.9718 9.6111 43.6197 9.45668 43.3556 9.30227C43.0914 9.07066 43.0034 8.83904 43.0034 8.53021C43.0034 8.22139 43.1795 7.91257 43.4436 7.68095C43.7077 7.44933 44.1479 7.29492 44.5881 7.29492C45.0283 7.29492 45.3805 7.37213 45.6446 7.60375C45.9088 7.83536 46.0848 7.98977 46.1729 8.22139L45.5566 8.45301C45.4686 8.2986 45.3805 8.14419 45.2044 8.06698C45.0283 7.91257 44.7642 7.91257 44.5001 7.91257C44.236 7.91257 44.0599 7.98977 43.7958 8.06698C43.7077 8.22139 43.6197 8.3758 43.6197 8.60742C43.6197 8.76183 43.7077 8.91624 43.8838 9.07066C44.0599 9.22507 44.324 9.30227 44.6762 9.37948C44.9403 9.45668 45.1164 9.53389 45.2925 9.6111C45.4686 9.6883 45.6446 9.76551 45.8207 9.91992C45.9968 9.99713 46.1729 10.1515 46.2609 10.3832C46.349 10.5376 46.437 10.7692 46.437 11.0008C46.437 11.2324 46.349 11.464 46.2609 11.6184C46.1729 11.7729 45.9968 11.9273 45.8207 12.0045C45.5566 12.0045 45.3805 12.0817 45.2044 12.0817C45.0283 12.1589 44.7642 12.1589 44.5881 12.1589Z" stroke="white" stroke-width="0.170985" stroke-miterlimit="10"/>
<path d="M48.0218 12.0817H47.3174V7.44935H49.0783C49.5185 7.44935 49.8706 7.60376 50.2228 7.83538C50.575 8.067 50.7511 8.45302 50.7511 8.83905C50.7511 9.22508 50.575 9.53391 50.2228 9.84273C49.8706 10.0743 49.5185 10.2288 49.0783 10.2288H48.0218V12.0817ZM48.0218 9.61111H49.1663C49.4304 9.61111 49.6946 9.53391 49.8706 9.37949C50.0467 9.22508 50.1348 8.99346 50.1348 8.83905C50.1348 8.60744 50.0467 8.45302 49.8706 8.29861C49.6946 8.1442 49.4304 8.067 49.1663 8.067H48.0218V9.61111Z" stroke="white" stroke-width="0.170985" stroke-miterlimit="10"/>
<path d="M55.9455 11.464C55.4173 11.9273 54.801 12.1589 54.0086 12.1589C53.2162 12.1589 52.5999 11.9273 52.0717 11.464C51.5434 11.0008 51.2793 10.4604 51.2793 9.7655C51.2793 9.07065 51.5434 8.53021 52.0717 8.06697C52.5999 7.60374 53.2162 7.37212 54.0086 7.37212C54.801 7.37212 55.4173 7.60374 55.9455 8.06697C56.4738 8.53021 56.7379 9.07065 56.7379 9.7655C56.7379 10.4604 56.4738 11.0008 55.9455 11.464ZM52.5999 11.078C52.9521 11.3868 53.4804 11.6184 54.0086 11.6184C54.5369 11.6184 55.0651 11.464 55.4173 11.078C55.7694 10.7692 56.0336 10.3059 56.0336 9.7655C56.0336 9.22506 55.8575 8.76183 55.4173 8.453C55.0651 8.14418 54.5369 7.91256 54.0086 7.91256C53.4804 7.91256 52.9521 8.06697 52.5999 8.453C52.2478 8.76183 51.9837 9.22506 51.9837 9.7655C51.9837 10.3059 52.1597 10.7692 52.5999 11.078Z" stroke="white" stroke-width="0.170985" stroke-miterlimit="10"/>
<path d="M57.7064 12.0817V7.44935H58.4987L61.0519 11.078V7.44935H61.7563V12.0817H61.0519L58.3226 8.29861V12.0817H57.7064Z" stroke="white" stroke-width="0.170985" stroke-miterlimit="10"/>
<path d="M62.9889 12.0817V7.44935H63.6932V12.0817H62.9889Z" stroke="white" stroke-width="0.170985" stroke-miterlimit="10"/>
<path d="M64.8377 7.44935H66.7746C67.2148 7.44935 67.567 7.60376 67.8311 7.83538C68.0953 8.067 68.2713 8.37582 68.2713 8.76185C68.2713 8.99347 68.1833 9.14788 68.0953 9.37949C68.0072 9.53391 67.8311 9.68832 67.567 9.76552C67.8311 9.84273 68.0072 9.99714 68.1833 10.1516C68.3594 10.306 68.4474 10.5376 68.4474 10.8464C68.4474 11.2324 68.2713 11.5413 68.0072 11.7729C67.655 12.0045 67.3029 12.1589 66.8627 12.1589H64.8377V7.44935ZM65.542 9.4567H66.7746C67.0388 9.4567 67.2148 9.37949 67.3909 9.22508C67.567 9.07067 67.655 8.91626 67.655 8.76185C67.655 8.60744 67.479 8.37582 67.3909 8.22141C67.2148 8.067 67.0388 7.98979 66.7746 7.98979H65.542V9.4567ZM65.542 11.5413H66.9507C67.2148 11.5413 67.3909 11.464 67.567 11.3096C67.7431 11.1552 67.8311 11.0008 67.8311 10.7692C67.8311 10.6148 67.7431 10.3832 67.567 10.2288C67.3909 10.0743 67.2148 9.99714 66.9507 9.99714H65.6301V11.5413H65.542Z" stroke="white" stroke-width="0.170985" stroke-miterlimit="10"/>
<path d="M69.3279 12.0817V7.44935H70.0322V11.5413H72.3213V12.0817H69.3279Z" stroke="white" stroke-width="0.170985" stroke-miterlimit="10"/>
<path d="M76.2831 7.98979H73.906V9.4567H76.1071V9.99714H73.906V11.4641H76.2831V12.0817H73.2017V7.44935H76.2831V7.98979Z" stroke="white" stroke-width="0.170985" stroke-miterlimit="10"/>
<path d="M82.1819 7.98979H79.8048V9.4567H82.0059V9.99714H79.8048V11.4641H82.1819V12.0817H79.1005V7.44935H82.1819V7.98979Z" stroke="white" stroke-width="0.170985" stroke-miterlimit="10"/>
<path d="M83.2384 12.0817V7.44935H84.0308L86.584 11.078V7.44935H87.2884V12.0817H86.584L83.8547 8.29861V12.0817H83.2384Z" stroke="white" stroke-width="0.170985" stroke-miterlimit="10"/>
<path d="M10.6707 7.62064C10.4 7.87377 10.2412 8.26572 10.2412 8.76382V26.8261C10.2412 27.3323 10.4 27.7243 10.6707 27.9692L10.7361 28.0264L22.3055 17.9174V17.7949V17.6725L10.7361 7.56348L10.6707 7.62064Z" fill="url(#paint0_linear_2297_22290)"/>
<path d="M26.1621 21.2895L22.3057 17.9172V17.7947V17.6722L26.1621 14.2998L26.2462 14.3406L30.8123 16.6107C32.1196 17.2557 32.1196 18.3173 30.8123 18.9705L26.2462 21.2405L26.1621 21.2895Z" fill="url(#paint1_linear_2297_22290)"/>
<path d="M26.2459 21.2408L22.3054 17.7949L10.6707 27.9692C11.1002 28.3693 11.8099 28.4183 12.6129 28.0182L26.2459 21.2408Z" fill="url(#paint2_linear_2297_22290)"/>
<path d="M26.2463 14.3491L12.6039 7.57163C11.8008 7.17152 11.0912 7.22051 10.6616 7.62063L22.3057 17.7949L26.2463 14.3491Z" fill="url(#paint3_linear_2297_22290)"/>
<defs>
<linearGradient id="paint0_linear_2297_22290" x1="17.2384" y1="-4.71436" x2="-0.920179" y2="0.805133" gradientUnits="userSpaceOnUse">
<stop stop-color="#00A0FF"/>
<stop offset="0.00657445" stop-color="#00A1FF"/>
<stop offset="0.2601" stop-color="#00BEFF"/>
<stop offset="0.5122" stop-color="#00D2FF"/>
<stop offset="0.7604" stop-color="#00DFFF"/>
<stop offset="1" stop-color="#00E3FF"/>
</linearGradient>
<linearGradient id="paint1_linear_2297_22290" x1="32.5159" y1="9.4725" x2="9.92153" y2="9.4725" gradientUnits="userSpaceOnUse">
<stop stop-color="#FFE000"/>
<stop offset="0.4087" stop-color="#FFBD00"/>
<stop offset="0.7754" stop-color="#FFA500"/>
<stop offset="1" stop-color="#FF9C00"/>
</linearGradient>
<linearGradient id="paint2_linear_2297_22290" x1="10.3218" y1="12.5067" x2="-1.80152" y2="35.8339" gradientUnits="userSpaceOnUse">
<stop stop-color="#FF3A44"/>
<stop offset="1" stop-color="#C31162"/>
</linearGradient>
<linearGradient id="paint3_linear_2297_22290" x1="1.57805" y1="4.80441" x2="6.98554" y2="15.2216" gradientUnits="userSpaceOnUse">
<stop stop-color="#32A071"/>
<stop offset="0.0685" stop-color="#2DA771"/>
<stop offset="0.4762" stop-color="#15CF74"/>
<stop offset="0.8009" stop-color="#06E775"/>
<stop offset="1" stop-color="#00F076"/>
</linearGradient>
</defs>
</svg>
