<svg width="120" height="36" viewBox="0 0 120 36" fill="none" xmlns="http://www.w3.org/2000/svg">
<rect y="0.294922" width="119.737" height="35" rx="4" fill="black"/>
<path d="M42.8088 23.0584H38.3586L37.2899 25.8256H35.405L39.6201 15.5877H41.5785L45.7936 25.8256H43.8765L42.8088 23.0584ZM38.8195 21.7815H42.347L40.6081 17.2905H40.5594L38.8195 21.7815Z" fill="white"/>
<path d="M54.8968 22.0939C54.8968 24.4134 53.481 25.9037 51.3445 25.9037C50.8033 25.9285 50.2651 25.8192 49.7915 25.5883C49.3178 25.3573 48.9279 25.014 48.6664 24.5978H48.626V28.2949H46.8788V18.3613H48.57V19.6028H48.6021C48.8757 19.1886 49.2721 18.8471 49.7494 18.6147C50.2267 18.3824 50.7668 18.2678 51.3124 18.2832C53.4727 18.2832 54.8968 19.7808 54.8968 22.0939ZM53.1009 22.0939C53.1009 20.5827 52.2103 19.5891 50.8515 19.5891C49.5166 19.5891 48.6186 20.6036 48.6186 22.0939C48.6186 23.5979 49.5166 24.6051 50.8515 24.6051C52.2103 24.6051 53.1009 23.6188 53.1009 22.0939Z" fill="white"/>
<path d="M64.2653 22.0939C64.2653 24.4134 62.8495 25.9037 60.7131 25.9037C60.1718 25.9285 59.6336 25.8192 59.16 25.5883C58.6863 25.3573 58.2964 25.014 58.0349 24.5978H57.9945V28.2949H56.2473V18.3613H57.9385V19.6028H57.9706C58.2441 19.1886 58.6406 18.8471 59.1179 18.6147C59.5951 18.3824 60.1353 18.2678 60.6809 18.2832C62.8413 18.2832 64.2653 19.7808 64.2653 22.0939ZM62.4694 22.0939C62.4694 20.5827 61.5788 19.5891 60.22 19.5891C58.8851 19.5891 57.9871 20.6036 57.9871 22.0939C57.9871 23.5979 58.8851 24.6051 60.22 24.6051C61.5788 24.6051 62.4694 23.6188 62.4694 22.0939Z" fill="white"/>
<path d="M70.4571 22.9731C70.5865 23.9883 71.7113 24.6549 73.2482 24.6549C74.7208 24.6549 75.7804 23.9883 75.7804 23.0729C75.7804 22.2782 75.1413 21.8024 73.6283 21.4763L72.1152 21.1567C69.9714 20.7026 68.9762 19.8234 68.9762 18.3967C68.9762 16.6303 70.7316 15.417 73.2243 15.417C75.6913 15.417 77.3825 16.6303 77.4394 18.3967H75.6757C75.5701 17.375 74.607 16.7583 73.1995 16.7583C71.792 16.7583 70.8289 17.3823 70.8289 18.2904C70.8289 19.0142 71.444 19.4402 72.9488 19.7662L74.2351 20.0432C76.6305 20.5399 77.6258 21.3837 77.6258 22.8812C77.6258 24.7966 75.8859 25.9962 73.1187 25.9962C70.5296 25.9962 68.7815 24.8248 68.6686 22.973L70.4571 22.9731Z" fill="white"/>
<path d="M81.3965 16.5949V18.3613H83.0151V19.5746H81.3965V23.6896C81.3965 24.3289 81.7206 24.6268 82.4321 24.6268C82.6243 24.6239 82.8161 24.612 83.0069 24.5913V25.7974C82.687 25.8498 82.3618 25.8736 82.0364 25.8683C80.3131 25.8683 79.641 25.3007 79.641 23.853V19.5746H78.4034V18.3613H79.641V16.5949H81.3965Z" fill="white"/>
<path d="M83.9526 22.0939C83.9526 19.7453 85.5299 18.2696 87.9896 18.2696C90.4575 18.2696 92.0275 19.7453 92.0275 22.0939C92.0275 24.4489 90.4658 25.9182 87.9896 25.9182C85.5143 25.9182 83.9526 24.4489 83.9526 22.0939ZM90.2472 22.0939C90.2472 20.4828 89.4053 19.532 87.9896 19.532C86.5738 19.532 85.7328 20.4901 85.7328 22.0939C85.7328 23.7114 86.5738 24.655 87.9896 24.655C89.4053 24.655 90.2472 23.7114 90.2472 22.0939Z" fill="white"/>
<path d="M93.468 18.3613H95.1344V19.6318H95.1748C95.2875 19.235 95.5526 18.8843 95.9255 18.6388C96.2983 18.3932 96.7562 18.2676 97.2222 18.2832C97.4235 18.2826 97.6243 18.3018 97.8208 18.3404V19.7735C97.5666 19.7054 97.3015 19.6741 97.0358 19.6809C96.782 19.6719 96.5289 19.7111 96.294 19.796C96.0591 19.8808 95.848 20.0092 95.675 20.1723C95.502 20.3355 95.3714 20.5295 95.292 20.7411C95.2126 20.9527 95.1864 21.1769 95.2152 21.3982V25.8256H93.468L93.468 18.3613Z" fill="white"/>
<path d="M105.876 23.6333C105.641 24.9883 104.137 25.9182 102.211 25.9182C99.7351 25.9182 98.1981 24.4633 98.1981 22.1293C98.1981 19.788 99.7433 18.2695 102.138 18.2695C104.493 18.2695 105.974 19.6882 105.974 21.9514V22.4763H99.9619V22.5689C99.9341 22.8436 99.9733 23.1203 100.077 23.3807C100.18 23.6411 100.346 23.8792 100.563 24.0792C100.779 24.2791 101.042 24.4364 101.333 24.5406C101.624 24.6447 101.937 24.6933 102.252 24.6831C102.665 24.7171 103.079 24.6332 103.433 24.4441C103.787 24.2549 104.062 23.9705 104.217 23.6333L105.876 23.6333ZM99.9701 21.4055H104.226C104.241 21.1585 104.199 20.9113 104.1 20.6795C104.002 20.4476 103.85 20.2361 103.654 20.0582C103.458 19.8804 103.222 19.7399 102.961 19.6458C102.7 19.5516 102.42 19.5057 102.138 19.511C101.853 19.5096 101.571 19.5575 101.308 19.6521C101.045 19.7467 100.805 19.8861 100.604 20.0622C100.402 20.2383 100.243 20.4477 100.134 20.6783C100.025 20.9088 99.9694 21.156 99.9701 21.4055Z" fill="white"/>
<path d="M36.3456 10.3427C36.3456 8.74736 37.3133 7.7619 38.8723 7.7619C39.4342 7.73749 39.986 7.89926 40.4182 8.21508C40.8503 8.5309 41.1313 8.97769 41.2053 9.46674H40.3376C40.2648 9.17692 40.0782 8.91875 39.8103 8.73736C39.5425 8.55597 39.2105 8.46291 38.8723 8.47443C37.8651 8.47443 37.2353 9.19381 37.2353 10.3427C37.2353 11.4884 37.8651 12.2074 38.876 12.2074C39.2018 12.2288 39.5259 12.15 39.7927 11.9845C40.0594 11.8191 40.2521 11.5773 40.3376 11.3008H41.2053C41.1206 11.7782 40.8338 12.2101 40.402 12.5102C39.9703 12.8103 39.4253 12.9566 38.876 12.9199C37.317 12.9199 36.3456 11.9348 36.3456 10.3427Z" fill="white"/>
<path d="M42.1583 10.9429C42.1316 10.699 42.1635 10.4528 42.2517 10.2203C42.3399 9.98771 42.4826 9.7739 42.6706 9.59254C42.8586 9.41117 43.0877 9.26626 43.3433 9.1671C43.5988 9.06794 43.8752 9.01672 44.1547 9.01672C44.4342 9.01672 44.7106 9.06794 44.9662 9.1671C45.2218 9.26626 45.4509 9.41117 45.6389 9.59254C45.8268 9.7739 45.9695 9.98771 46.0577 10.2203C46.146 10.4528 46.1778 10.699 46.1512 10.9429C46.1783 11.1872 46.1468 11.4336 46.0589 11.6666C45.9709 11.8995 45.8283 12.1137 45.6403 12.2954C45.4522 12.4771 45.2229 12.6224 44.9671 12.7217C44.7113 12.8211 44.4345 12.8724 44.1547 12.8724C43.8749 12.8724 43.5982 12.8211 43.3424 12.7217C43.0865 12.6224 42.8572 12.4771 42.6692 12.2954C42.4812 12.1137 42.3386 11.8995 42.2506 11.6666C42.1626 11.4336 42.1311 11.1872 42.1583 10.9429ZM45.2918 10.9429C45.2918 10.1382 44.8796 9.66763 44.1561 9.66763C43.4299 9.66763 43.0213 10.1382 43.0213 10.9429C43.0213 11.7541 43.4299 12.2211 44.1561 12.2211C44.8796 12.2211 45.2918 11.7509 45.2918 10.9429Z" fill="white"/>
<path d="M47.2722 9.08833H48.0765V9.67808H48.1389C48.2448 9.46626 48.4235 9.2887 48.6499 9.17014C48.8764 9.05158 49.1394 8.99793 49.4022 9.01667C49.6082 9.00309 49.8151 9.03032 50.0074 9.09636C50.1998 9.16239 50.3727 9.26553 50.5134 9.39814C50.6542 9.53075 50.7591 9.68942 50.8204 9.86241C50.8817 10.0354 50.8978 10.2183 50.8676 10.3974V12.8007H50.0321V10.5814C50.0321 9.98484 49.7364 9.68815 49.1185 9.68815C48.9787 9.68243 48.8391 9.70331 48.7093 9.74934C48.5795 9.79537 48.4626 9.86546 48.3666 9.95482C48.2706 10.0442 48.1977 10.1507 48.153 10.267C48.1083 10.3834 48.0929 10.5068 48.1077 10.6289V12.8007H47.2722V9.08833Z" fill="white"/>
<path d="M53.7073 9.01668C54.6594 9.01668 55.2819 9.40515 55.3636 10.0597H54.5621C54.485 9.78718 54.1811 9.61328 53.7073 9.61328C53.2409 9.61328 52.8866 9.80731 52.8866 10.0972C52.8866 10.3189 53.1005 10.4587 53.5595 10.5508L54.2628 10.6937C55.068 10.8576 55.4453 11.1611 55.4453 11.7066C55.4453 12.4054 54.7026 12.8724 53.6917 12.8724C52.6845 12.8724 52.0281 12.4735 51.9537 11.8157H52.7901C52.8622 11.9722 52.9922 12.103 53.1592 12.1871C53.3262 12.2711 53.5205 12.3035 53.711 12.279C54.2316 12.279 54.6016 12.0746 54.6016 11.7778C54.6016 11.5564 54.4033 11.4131 53.9791 11.3246L53.2409 11.1744C52.4357 11.0073 52.063 10.6905 52.063 10.1382C52.063 9.48002 52.7507 9.01668 53.7073 9.01668Z" fill="white"/>
<path d="M56.5002 8.46758L57.4762 7.29492H58.4559L57.3633 8.46758H56.5002ZM56.5865 9.08833H57.4184V12.8007H56.5865V9.08833Z" fill="white"/>
<path d="M58.7193 13.1723H59.5741C59.6448 13.4416 59.9983 13.6155 60.562 13.6155C61.258 13.6155 61.6702 13.3257 61.6702 12.835V12.1224H61.6078C61.4767 12.3219 61.2853 12.4857 61.0548 12.5957C60.8242 12.7058 60.5634 12.7578 60.3013 12.746C59.2206 12.746 58.5522 12.0133 58.5522 10.9019C58.5522 9.76991 59.228 9.02674 60.3095 9.02674C60.5783 9.01854 60.8444 9.07525 61.0788 9.19069C61.3133 9.30613 61.5071 9.47585 61.639 9.68131H61.7051V9.08834H62.5057V12.8313C62.5057 13.6803 61.7473 14.219 60.5501 14.219C59.4924 14.219 58.8084 13.8031 58.7193 13.1723ZM61.6858 10.8983C61.6858 10.1587 61.2497 9.68493 60.5381 9.68493C59.8193 9.68493 59.4153 10.1587 59.4153 10.8983C59.4153 11.6382 59.8193 12.112 60.5381 12.112C61.2543 12.112 61.6858 11.6418 61.6858 10.8983Z" fill="white"/>
<path d="M67.4061 12.8007H66.601V12.211H66.5349C66.4278 12.425 66.2467 12.6041 66.0172 12.7228C65.7876 12.8415 65.5213 12.8938 65.2559 12.8724C65.0511 12.8852 64.8457 12.8575 64.6547 12.7916C64.4637 12.7256 64.292 12.623 64.1521 12.4912C64.0122 12.3594 63.9078 12.2019 63.8464 12.0301C63.7851 11.8583 63.7683 11.6767 63.7975 11.4985V9.08833H64.6343V11.3076C64.6343 11.9075 64.9098 12.1941 65.524 12.1941C65.6664 12.2059 65.81 12.1898 65.9444 12.1467C66.0788 12.1037 66.2005 12.0349 66.3007 11.9454C66.4009 11.8559 66.4771 11.7479 66.5236 11.6292C66.5702 11.5106 66.5859 11.3844 66.5697 11.2597V9.08833H67.4061V12.8007Z" fill="white"/>
<path d="M72.3172 11.7984C72.2037 12.1377 71.9577 12.4312 71.6224 12.6275C71.2871 12.8238 70.8837 12.9105 70.4828 12.8724C70.2039 12.8789 69.9267 12.832 69.6705 12.7351C69.4143 12.6382 69.1852 12.4936 68.9992 12.3113C68.8131 12.129 68.6745 11.9133 68.593 11.6793C68.5115 11.4453 68.4891 11.1986 68.5272 10.9562C68.4901 10.7131 68.5129 10.4658 68.5942 10.2311C68.6755 9.99642 68.8134 9.77978 68.9985 9.59587C69.1836 9.41196 69.4116 9.26507 69.667 9.16514C69.9225 9.06521 70.1994 9.01458 70.4791 9.01667C71.6571 9.01667 72.3677 9.72239 72.3677 10.8882V11.1438H69.3783V11.1849C69.3652 11.3211 69.3847 11.4582 69.4356 11.5875C69.4865 11.7167 69.5676 11.8352 69.6738 11.9353C69.7799 12.0355 69.9087 12.115 70.052 12.1689C70.1953 12.2229 70.3498 12.2499 70.5057 12.2484C70.7056 12.2695 70.9081 12.2379 71.0874 12.1578C71.2668 12.0776 71.4149 11.9525 71.5129 11.7983L72.3172 11.7984ZM69.3783 10.602H71.5166C71.5271 10.4774 71.5078 10.3522 71.4599 10.2346C71.412 10.1169 71.3365 10.0093 71.2384 9.91874C71.1403 9.82817 71.0216 9.7566 70.89 9.70864C70.7585 9.66068 70.6169 9.63738 70.4745 9.64025C70.33 9.63865 70.1866 9.66244 70.0527 9.71021C69.9189 9.75798 69.7973 9.82877 69.6951 9.9184C69.593 10.008 69.5123 10.1147 69.4579 10.2321C69.4035 10.3495 69.3764 10.4752 69.3783 10.602Z" fill="white"/>
<path d="M73.5282 7.6391H74.3637V12.8007H73.5282V7.6391Z" fill="white"/>
<path d="M75.5251 10.9429C75.4985 10.699 75.5303 10.4528 75.6185 10.2203C75.7068 9.98771 75.8494 9.7739 76.0374 9.59254C76.2254 9.41117 76.4545 9.26626 76.7101 9.1671C76.9657 9.06794 77.2421 9.01672 77.5216 9.01672C77.801 9.01672 78.0774 9.06794 78.333 9.1671C78.5886 9.26626 78.8177 9.41117 79.0057 9.59254C79.1937 9.7739 79.3364 9.98771 79.4246 10.2203C79.5128 10.4528 79.5446 10.699 79.518 10.9429C79.5451 11.1872 79.5137 11.4336 79.4257 11.6666C79.3377 11.8995 79.1951 12.1137 79.0071 12.2954C78.8191 12.4771 78.5898 12.6224 78.3339 12.7217C78.0781 12.8211 77.8014 12.8724 77.5216 12.8724C77.2417 12.8724 76.965 12.8211 76.7092 12.7217C76.4534 12.6224 76.224 12.4771 76.036 12.2954C75.848 12.1137 75.7054 11.8995 75.6174 11.6666C75.5294 11.4336 75.498 11.1872 75.5251 10.9429ZM78.6586 10.9429C78.6586 10.1382 78.2464 9.66763 77.5229 9.66763C76.7967 9.66763 76.3882 10.1382 76.3882 10.9429C76.3882 11.7541 76.7967 12.2211 77.5229 12.2211C78.2464 12.2211 78.6586 11.7509 78.6586 10.9429Z" fill="white"/>
<path d="M86.5159 11.7984C86.4024 12.1377 86.1565 12.4312 85.8211 12.6275C85.4858 12.8238 85.0824 12.9105 84.6815 12.8724C84.4026 12.8789 84.1255 12.832 83.8693 12.7351C83.6131 12.6382 83.384 12.4936 83.1979 12.3113C83.0118 12.129 82.8733 11.9133 82.7918 11.6793C82.7102 11.4453 82.6878 11.1986 82.7259 10.9562C82.6888 10.7131 82.7117 10.4658 82.793 10.2311C82.8743 9.99642 83.0121 9.77978 83.1972 9.59587C83.3823 9.41196 83.6103 9.26507 83.8657 9.16514C84.1212 9.06521 84.3982 9.01458 84.6779 9.01667C85.8558 9.01667 86.5664 9.72239 86.5664 10.8882V11.1438H83.577V11.1849C83.564 11.3211 83.5835 11.4582 83.6344 11.5875C83.6852 11.7167 83.7664 11.8352 83.8725 11.9353C83.9787 12.0355 84.1075 12.115 84.2508 12.1689C84.3941 12.2229 84.5486 12.2499 84.7045 12.2484C84.9043 12.2695 85.1068 12.2379 85.2862 12.1578C85.4655 12.0776 85.6136 11.9525 85.7117 11.7983L86.5159 11.7984ZM83.577 10.602H85.7154C85.7259 10.4774 85.7066 10.3522 85.6587 10.2346C85.6108 10.1169 85.5353 10.0093 85.4372 9.91874C85.3391 9.82817 85.2204 9.7566 85.0888 9.70864C84.9573 9.66068 84.8157 9.63738 84.6733 9.64025C84.5288 9.63865 84.3854 9.66243 84.2515 9.7102C84.1177 9.75797 83.9961 9.82876 83.8939 9.91839C83.7917 10.008 83.7111 10.1147 83.6567 10.2321C83.6022 10.3495 83.5751 10.4752 83.577 10.602Z" fill="white"/>
<path d="M87.6884 9.08833H88.4927V9.67808H88.5551C88.661 9.46626 88.8396 9.2887 89.0661 9.17014C89.2926 9.05158 89.5556 8.99793 89.8184 9.01667C90.0244 9.00309 90.2312 9.03032 90.4236 9.09636C90.616 9.16239 90.7889 9.26553 90.9296 9.39814C91.0704 9.53075 91.1753 9.68942 91.2366 9.86241C91.2979 10.0354 91.314 10.2183 91.2837 10.3974V12.8007H90.4483V10.5814C90.4483 9.98484 90.1526 9.68815 89.5347 9.68815C89.3949 9.68243 89.2553 9.70331 89.1255 9.74934C88.9957 9.79537 88.8788 9.86546 88.7827 9.95482C88.6867 10.0442 88.6139 10.1507 88.5692 10.267C88.5245 10.3834 88.5091 10.5068 88.5239 10.6289V12.8007H87.6884V9.08833Z" fill="white"/>
<path d="M98.4524 11.7984C98.3389 12.1377 98.093 12.4312 97.7576 12.6275C97.4223 12.8238 97.0189 12.9105 96.618 12.8724C96.3391 12.8789 96.062 12.832 95.8058 12.7351C95.5496 12.6382 95.3205 12.4936 95.1344 12.3113C94.9484 12.129 94.8098 11.9133 94.7283 11.6793C94.6467 11.4453 94.6243 11.1986 94.6624 10.9562C94.6253 10.7131 94.6482 10.4658 94.7295 10.2311C94.8108 9.99642 94.9486 9.77978 95.1337 9.59587C95.3188 9.41196 95.5468 9.26507 95.8023 9.16514C96.0577 9.06521 96.3347 9.01458 96.6144 9.01667C97.7923 9.01667 98.5029 9.72239 98.5029 10.8882V11.1438H95.5135V11.1849C95.5005 11.3211 95.52 11.4582 95.5709 11.5875C95.6218 11.7167 95.7029 11.8352 95.809 11.9353C95.9152 12.0355 96.044 12.115 96.1873 12.1689C96.3306 12.2229 96.4851 12.2499 96.641 12.2484C96.8408 12.2695 97.0433 12.2379 97.2227 12.1578C97.402 12.0776 97.5501 11.9525 97.6482 11.7983L98.4524 11.7984ZM95.5135 10.602H97.6518C97.6623 10.4774 97.643 10.3522 97.5951 10.2346C97.5472 10.1169 97.4718 10.0093 97.3736 9.91874C97.2755 9.82817 97.1568 9.7566 97.0253 9.70864C96.8937 9.66068 96.7522 9.63738 96.6097 9.64025C96.4652 9.63865 96.3218 9.66245 96.188 9.71022C96.0541 9.75799 95.9326 9.82878 95.8304 9.91841C95.7282 10.008 95.6476 10.1147 95.5931 10.2321C95.5387 10.3495 95.5116 10.4752 95.5135 10.602Z" fill="white"/>
<path d="M99.6635 7.6391H100.499V12.8007H99.6635V7.6391Z" fill="white"/>
<path d="M26.5321 17.4764C26.542 16.8056 26.7452 16.1479 27.1228 15.5645C27.5003 14.9811 28.0401 14.491 28.6917 14.1396C28.2778 13.6212 27.7316 13.1945 27.0967 12.8935C26.4618 12.5925 25.7555 12.4254 25.0341 12.4056C23.4952 12.264 22.0033 13.2132 21.2191 13.2132C20.4198 13.2132 19.2124 12.4197 17.9122 12.4432C17.0712 12.467 16.2516 12.6814 15.5332 13.0656C14.8149 13.4498 14.2222 13.9906 13.8131 14.6354C12.0407 17.3263 13.3627 21.281 15.0605 23.4562C15.91 24.5213 16.9027 25.711 18.2017 25.6688C19.4728 25.6226 19.9476 24.958 21.482 24.958C23.0021 24.958 23.4475 25.6688 24.7729 25.642C26.1369 25.6226 26.9962 24.5722 27.8159 23.497C28.4262 22.7381 28.8958 21.8993 29.2074 21.0117C28.415 20.7178 27.7387 20.2258 27.263 19.5972C26.7872 18.9685 26.5331 18.2309 26.5321 17.4764Z" fill="white"/>
<path d="M24.0288 10.9751C24.7725 10.1922 25.1389 9.18591 25.0502 8.16992C23.9139 8.27457 22.8644 8.75078 22.1106 9.50365C21.7421 9.87145 21.4598 10.2993 21.28 10.7628C21.1002 11.2264 21.0263 11.7164 21.0625 12.205C21.6308 12.2101 22.1931 12.1021 22.7069 11.8891C23.2207 11.676 23.6727 11.3635 24.0288 10.9751Z" fill="white"/>
</svg>
